<svg xmlns="http://www.w3.org/2000/svg" xmlns:xlink="http://www.w3.org/1999/xlink" version="1.0" x="0" y="0" width="2400" height="560.2704591051784" viewBox="66.91410995483399 100.93500686645508 206.17178009033202 48.12998245239258" preserveAspectRatio="xMidYMid meet" color-interpolation-filters="sRGB"><g><defs><linearGradient id="92" x1="0%" y1="0%" x2="100%" y2="0%"><stop offset="0%" stop-color="#fa71cd"></stop> <stop offset="100%" stop-color="#9b59b6"></stop></linearGradient><linearGradient id="93" x1="0%" y1="0%" x2="100%" y2="0%"><stop offset="0%" stop-color="#f9d423"></stop> <stop offset="100%" stop-color="#f83600"></stop></linearGradient><linearGradient id="94" x1="0%" y1="0%" x2="100%" y2="0%"><stop offset="0%" stop-color="#0064d2"></stop> <stop offset="100%" stop-color="#1cb0f6"></stop></linearGradient><linearGradient id="95" x1="0%" y1="0%" x2="100%" y2="0%"><stop offset="0%" stop-color="#f00978"></stop> <stop offset="100%" stop-color="#3f51b1"></stop></linearGradient><linearGradient id="96" x1="0%" y1="0%" x2="100%" y2="0%"><stop offset="0%" stop-color="#7873f5"></stop> <stop offset="100%" stop-color="#ec77ab"></stop></linearGradient><linearGradient id="97" x1="0%" y1="0%" x2="100%" y2="0%"><stop offset="0%" stop-color="#f9d423"></stop> <stop offset="100%" stop-color="#e14fad"></stop></linearGradient><linearGradient id="98" x1="0%" y1="0%" x2="100%" y2="0%"><stop offset="0%" stop-color="#009efd"></stop> <stop offset="100%" stop-color="#2af598"></stop></linearGradient><linearGradient id="99" x1="0%" y1="0%" x2="100%" y2="0%"><stop offset="0%" stop-color="#ffcc00"></stop> <stop offset="100%" stop-color="#00b140"></stop></linearGradient><linearGradient id="100" x1="0%" y1="0%" x2="100%" y2="0%"><stop offset="0%" stop-color="#d51007"></stop> <stop offset="100%" stop-color="#ff8177"></stop></linearGradient><linearGradient id="102" x1="0%" y1="0%" x2="100%" y2="0%"><stop offset="0%" stop-color="#a2b6df"></stop> <stop offset="100%" stop-color="#0c3483"></stop></linearGradient><linearGradient id="103" x1="0%" y1="0%" x2="100%" y2="0%"><stop offset="0%" stop-color="#7ac5d8"></stop> <stop offset="100%" stop-color="#eea2a2"></stop></linearGradient><linearGradient id="104" x1="0%" y1="0%" x2="100%" y2="0%"><stop offset="0%" stop-color="#00ecbc"></stop> <stop offset="100%" stop-color="#007adf"></stop></linearGradient><linearGradient id="105" x1="0%" y1="0%" x2="100%" y2="0%"><stop offset="0%" stop-color="#b88746"></stop> <stop offset="100%" stop-color="#fdf5a6"></stop></linearGradient></defs><g fill="#1684ac" class="basesvg" transform="translate(68.9354019165039,102.95630073547363)"><g fill-rule="" class="tp-name"><g transform="scale(1.2600000000000002)"><g><g transform="translate(0, 6)" fill-opacity="0"><path d="M23.19-21.28L21.28-15.48 5.8-15.48 5.8-13.53 19.33-13.53Q23.19-13.53 23.19-9.68L23.19-9.68 23.19-3.88Q23.19-0.02 19.33-0.02L19.33-0.02 0-0.02 0-5.8 17.39-5.82 17.39-7.75 3.87-7.75Q0-7.75 0-11.6L0-11.6 0-17.39Q0-21.28 3.87-21.28L3.87-21.28 23.19-21.28ZM50.25-21.28L48.34-15.48 32.86-15.48 32.86-13.53 46.39-13.53Q50.25-13.53 50.25-9.68L50.25-9.68 50.25-3.88Q50.25-0.02 46.39-0.02L46.39-0.02 27.06-0.02 27.06-5.8 44.45-5.82 44.45-7.75 30.92-7.75Q27.06-7.75 27.06-11.6L27.06-11.6 27.06-17.39Q27.06-21.28 30.92-21.28L30.92-21.28 50.25-21.28ZM59.92 0L54.12 0 54.12-28.99 59.92-28.99 59.92-21.26 73.45-21.26Q77.31-21.26 77.31-17.39L77.31-17.39 77.31 0 71.51 0 71.51-15.46 59.92-15.46 59.92 0ZM94.73 0L94.73-15.46 86.97-15.46 86.97 0 81.18 0 81.18-17.39Q81.18-21.26 85.04-21.26L85.04-21.26 110.17-21.26Q114.03-21.26 114.03-17.39L114.03-17.39 114.03 0 108.24 0 108.22-15.46 100.52-15.46 100.52 0 94.73 0ZM123.72 0L117.92 0 117.92-5.8 123.72-5.8 123.72 0ZM127.56-28.99L133.36-28.99 131.43-23.19 127.56-23.19 127.56-28.99ZM127.56 0L133.36 0 133.36-21.26 127.56-21.26 127.56 0ZM160.42-17.39L160.42-3.87Q160.42 0 156.55 0L156.55 0 141.09 0Q137.23 0 137.23-3.87L137.23-3.87 137.23-17.39Q137.23-21.26 141.09-21.26L141.09-21.26 156.55-21.26Q160.42-21.26 160.42-17.39L160.42-17.39ZM154.62-15.46L143.03-15.46 143.03-5.8 154.62-5.8 154.62-15.46Z" transform="translate(0, 28.989999771118164)"></path></g><g filter="url(#text-effect-sticker-shadow-e-z2aJIfVgBq3Z5wf66Ff)" stroke="#000" stroke-width="6" stroke-linecap="round" stroke-linejoin="round" paint-order="stroke"><path d="M23.19-21.28L21.28-15.48 5.8-15.48 5.8-13.53 19.33-13.53Q23.19-13.53 23.19-9.68L23.19-9.68 23.19-3.88Q23.19-0.02 19.33-0.02L19.33-0.02 0-0.02 0-5.8 17.39-5.82 17.39-7.75 3.87-7.75Q0-7.75 0-11.6L0-11.6 0-17.39Q0-21.28 3.87-21.28L3.87-21.28 23.19-21.28ZM50.25-21.28L48.34-15.48 32.86-15.48 32.86-13.53 46.39-13.53Q50.25-13.53 50.25-9.68L50.25-9.68 50.25-3.88Q50.25-0.02 46.39-0.02L46.39-0.02 27.06-0.02 27.06-5.8 44.45-5.82 44.45-7.75 30.92-7.75Q27.06-7.75 27.06-11.6L27.06-11.6 27.06-17.39Q27.06-21.28 30.92-21.28L30.92-21.28 50.25-21.28ZM59.92 0L54.12 0 54.12-28.99 59.92-28.99 59.92-21.26 73.45-21.26Q77.31-21.26 77.31-17.39L77.31-17.39 77.31 0 71.51 0 71.51-15.46 59.92-15.46 59.92 0ZM94.73 0L94.73-15.46 86.97-15.46 86.97 0 81.18 0 81.18-17.39Q81.18-21.26 85.04-21.26L85.04-21.26 110.17-21.26Q114.03-21.26 114.03-17.39L114.03-17.39 114.03 0 108.24 0 108.22-15.46 100.52-15.46 100.52 0 94.73 0ZM123.72 0L117.92 0 117.92-5.8 123.72-5.8 123.72 0ZM127.56-28.99L133.36-28.99 131.43-23.19 127.56-23.19 127.56-28.99ZM127.56 0L133.36 0 133.36-21.26 127.56-21.26 127.56 0ZM160.42-17.39L160.42-3.87Q160.42 0 156.55 0L156.55 0 141.09 0Q137.23 0 137.23-3.87L137.23-3.87 137.23-17.39Q137.23-21.26 141.09-21.26L141.09-21.26 156.55-21.26Q160.42-21.26 160.42-17.39L160.42-17.39ZM154.62-15.46L143.03-15.46 143.03-5.8 154.62-5.8 154.62-15.46Z" transform="translate(0, 28.989999771118164)"></path></g><g stroke="#fff" stroke-width="5" stroke-linecap="round" stroke-linejoin="round" paint-order="stroke"><path d="M23.19-21.28L21.28-15.48 5.8-15.48 5.8-13.53 19.33-13.53Q23.19-13.53 23.19-9.68L23.19-9.68 23.19-3.88Q23.19-0.02 19.33-0.02L19.33-0.02 0-0.02 0-5.8 17.39-5.82 17.39-7.75 3.87-7.75Q0-7.75 0-11.6L0-11.6 0-17.39Q0-21.28 3.87-21.28L3.87-21.28 23.19-21.28ZM50.25-21.28L48.34-15.48 32.86-15.48 32.86-13.53 46.39-13.53Q50.25-13.53 50.25-9.68L50.25-9.68 50.25-3.88Q50.25-0.02 46.39-0.02L46.39-0.02 27.06-0.02 27.06-5.8 44.45-5.82 44.45-7.75 30.92-7.75Q27.06-7.75 27.06-11.6L27.06-11.6 27.06-17.39Q27.06-21.28 30.92-21.28L30.92-21.28 50.25-21.28ZM59.92 0L54.12 0 54.12-28.99 59.92-28.99 59.92-21.26 73.45-21.26Q77.31-21.26 77.31-17.39L77.31-17.39 77.31 0 71.51 0 71.51-15.46 59.92-15.46 59.92 0ZM94.73 0L94.73-15.46 86.97-15.46 86.97 0 81.18 0 81.18-17.39Q81.18-21.26 85.04-21.26L85.04-21.26 110.17-21.26Q114.03-21.26 114.03-17.39L114.03-17.39 114.03 0 108.24 0 108.22-15.46 100.52-15.46 100.52 0 94.73 0ZM123.72 0L117.92 0 117.92-5.8 123.72-5.8 123.72 0ZM127.56-28.99L133.36-28.99 131.43-23.19 127.56-23.19 127.56-28.99ZM127.56 0L133.36 0 133.36-21.26 127.56-21.26 127.56 0ZM160.42-17.39L160.42-3.87Q160.42 0 156.55 0L156.55 0 141.09 0Q137.23 0 137.23-3.87L137.23-3.87 137.23-17.39Q137.23-21.26 141.09-21.26L141.09-21.26 156.55-21.26Q160.42-21.26 160.42-17.39L160.42-17.39ZM154.62-15.46L143.03-15.46 143.03-5.8 154.62-5.8 154.62-15.46Z" transform="translate(0, 28.989999771118164)"></path></g><g stroke="#000" stroke-width="1" stroke-linecap="round" stroke-linejoin="round" paint-order="stroke"><path d="M23.19-21.28L21.28-15.48 5.8-15.48 5.8-13.53 19.33-13.53Q23.19-13.53 23.19-9.68L23.19-9.68 23.19-3.88Q23.19-0.02 19.33-0.02L19.33-0.02 0-0.02 0-5.8 17.39-5.82 17.39-7.75 3.87-7.75Q0-7.75 0-11.6L0-11.6 0-17.39Q0-21.28 3.87-21.28L3.87-21.28 23.19-21.28ZM50.25-21.28L48.34-15.48 32.86-15.48 32.86-13.53 46.39-13.53Q50.25-13.53 50.25-9.68L50.25-9.68 50.25-3.88Q50.25-0.02 46.39-0.02L46.39-0.02 27.06-0.02 27.06-5.8 44.45-5.82 44.45-7.75 30.92-7.75Q27.06-7.75 27.06-11.6L27.06-11.6 27.06-17.39Q27.06-21.28 30.92-21.28L30.92-21.28 50.25-21.28ZM59.92 0L54.12 0 54.12-28.99 59.92-28.99 59.92-21.26 73.45-21.26Q77.31-21.26 77.31-17.39L77.31-17.39 77.31 0 71.51 0 71.51-15.46 59.92-15.46 59.92 0ZM94.73 0L94.73-15.46 86.97-15.46 86.97 0 81.18 0 81.18-17.39Q81.18-21.26 85.04-21.26L85.04-21.26 110.17-21.26Q114.03-21.26 114.03-17.39L114.03-17.39 114.03 0 108.24 0 108.22-15.46 100.52-15.46 100.52 0 94.73 0ZM123.72 0L117.92 0 117.92-5.8 123.72-5.8 123.72 0ZM127.56-28.99L133.36-28.99 131.43-23.19 127.56-23.19 127.56-28.99ZM127.56 0L133.36 0 133.36-21.26 127.56-21.26 127.56 0ZM160.42-17.39L160.42-3.87Q160.42 0 156.55 0L156.55 0 141.09 0Q137.23 0 137.23-3.87L137.23-3.87 137.23-17.39Q137.23-21.26 141.09-21.26L141.09-21.26 156.55-21.26Q160.42-21.26 160.42-17.39L160.42-17.39ZM154.62-15.46L143.03-15.46 143.03-5.8 154.62-5.8 154.62-15.46Z" transform="translate(0, 28.989999771118164)"></path></g><defs><filter id="text-effect-sticker-shadow-e-z2aJIfVgBq3Z5wf66Ff" filterUnits="objectBoundingBox" width="2" height="2" x="-0.2" y="-0.2"><feDropShadow dx="0" dy="1.5" stdDeviation="0" flood-color="#f5f54b" flood-opacity="1"></feDropShadow><feDropShadow dx="0" dy="0.5" stdDeviation="0" flood-color="#000" flood-opacity="1"></feDropShadow><feDropShadow dx="0" dy="1.5" stdDeviation="0" flood-color="#21578b" flood-opacity="1"></feDropShadow></filter></defs></g></g></g> </g><defs v-gra="od"></defs></g></svg>